<svg xmlns="http://www.w3.org/2000/svg" width="296" height="107" fill="none"><path fill="#161616" d="m15.704 34.818 6.75 10.892h.205l6.75-10.892h3.733L24.909 47.91 33.142 61h-3.733l-6.75-10.688h-.204L15.704 61h-3.733l8.437-13.09-8.437-13.092h3.732Zm23.098 0 6.75 10.892h.205l6.75-10.892h3.733L48.007 47.91 56.24 61h-3.733l-6.75-10.688h-.205L38.802 61H35.07l8.438-13.09-8.438-13.092h3.733Zm33.223 0 6.75 10.892h.204l6.75-10.892h3.733L81.23 47.91 89.462 61H85.73l-6.75-10.688h-.204L72.025 61h-3.733l8.437-13.09-8.437-13.092h3.733Zm23.097 0 6.751 10.892h.204l6.75-10.892h3.733l-8.233 13.091L112.56 61h-3.733l-6.75-10.688h-.204L95.123 61H91.39l8.437-13.09-8.437-13.092h3.733Zm33.223 0 6.75 10.892h.205l6.75-10.892h3.733L137.55 47.91 145.783 61h-3.733l-6.75-10.688h-.205L128.345 61h-3.733l8.438-13.09-8.438-13.092h3.733Zm23.098 0 6.75 10.892h.204l6.75-10.892h3.733l-8.233 13.091L168.88 61h-3.733l-6.75-10.688h-.204L151.443 61h-3.733l8.437-13.09-8.437-13.092h3.733Zm23.097 0 6.75 10.892h.205l6.75-10.892h3.733l-8.233 13.091L191.978 61h-3.733l-6.75-10.688h-.205L174.54 61h-3.732l8.437-13.09-8.437-13.092h3.732Zm23.098 0 6.75 10.892h.205l6.75-10.892h3.733l-8.233 13.091L215.076 61h-3.733l-6.75-10.688h-.205L197.638 61h-3.733l8.438-13.09-8.438-13.092h3.733Zm23.098 0 6.75 10.892h.204l6.75-10.892h3.733L229.94 47.91 238.173 61h-3.733l-6.75-10.688h-.204L220.736 61h-3.733l8.437-13.09-8.437-13.092h3.733Zm33.222 0 6.75 10.892h.205l6.75-10.892h3.733l-8.233 13.091L271.396 61h-3.733l-6.75-10.688h-.205L253.958 61h-3.733l8.438-13.09-8.438-13.092h3.733Z"/><path stroke="#CCC" d="M125 25.5h113M12 25.5h44M68 70.5h44M250 70.5h22M260.5 71v12M34.5 13v12M90.5 71v12M181.5 13v12"/><path fill="#555" d="m231.045 93-2.75-3.672h-.984V93h-.969v-8h.969v3.469h.421L230.936 85h1.156l-3.235 3.516L232.201 93h-1.156Zm4.28.125c-.541 0-1.017-.129-1.426-.387a2.627 2.627 0 0 1-.953-1.082c-.226-.463-.34-1.005-.34-1.625 0-.625.114-1.17.34-1.637.229-.466.547-.828.953-1.085.409-.258.885-.387 1.426-.387.542 0 1.016.129 1.422.387.409.257.727.62.953 1.085.229.467.344 1.012.344 1.637 0 .62-.115 1.162-.344 1.625a2.586 2.586 0 0 1-.953 1.082c-.406.258-.88.387-1.422.387Zm0-.828c.412 0 .75-.106 1.016-.316.265-.212.462-.489.59-.833.127-.343.191-.716.191-1.117 0-.4-.064-.775-.191-1.12a1.898 1.898 0 0 0-.59-.84c-.266-.214-.604-.321-1.016-.321-.411 0-.75.107-1.015.32a1.882 1.882 0 0 0-.59.84c-.128.347-.192.72-.192 1.121s.064.774.192 1.117c.127.344.324.621.59.833.265.21.604.316 1.015.316Zm8.142-2.719v.86h-3.313v-.86h3.313ZM240.373 87v6h-.922v-6h.922Zm3.797 0v6h-.922v-6h.922Zm.867.86V87h4.875v.86h-1.969V93h-.922v-5.14h-1.984Zm6.22 7.39V87h.89v.953h.11c.068-.104.161-.237.281-.398.122-.164.297-.31.524-.438.229-.13.539-.195.929-.195.505 0 .951.126 1.336.379.386.252.686.61.902 1.074.217.463.325 1.01.325 1.64 0 .636-.108 1.187-.325 1.653a2.555 2.555 0 0 1-.898 1.078 2.349 2.349 0 0 1-1.324.379c-.386 0-.694-.064-.926-.191a1.713 1.713 0 0 1-.535-.442 6.011 6.011 0 0 1-.289-.414h-.078v3.172h-.922Zm.906-5.25c0 .453.066.853.199 1.2.133.343.327.612.582.808.256.193.568.289.938.289.385 0 .707-.102.965-.305.26-.206.455-.482.586-.828.132-.349.199-.737.199-1.164a3.16 3.16 0 0 0-.195-1.14 1.763 1.763 0 0 0-.583-.81c-.257-.2-.582-.3-.972-.3-.375 0-.69.095-.945.285-.256.188-.448.45-.579.79-.13.335-.195.727-.195 1.175Zm8.234 3.125c-.541 0-1.016-.129-1.425-.387a2.62 2.62 0 0 1-.953-1.082c-.227-.463-.34-1.005-.34-1.625 0-.625.113-1.17.34-1.637.229-.466.546-.828.953-1.085.409-.258.884-.387 1.425-.387.542 0 1.016.129 1.422.387.409.257.727.62.953 1.085.23.467.344 1.012.344 1.637 0 .62-.114 1.162-.344 1.625a2.586 2.586 0 0 1-.953 1.082c-.406.258-.88.387-1.422.387Zm0-.828c.412 0 .75-.106 1.016-.316.266-.212.462-.489.59-.833.128-.343.191-.716.191-1.117 0-.4-.063-.775-.191-1.12a1.89 1.89 0 0 0-.59-.84c-.266-.214-.604-.321-1.016-.321-.411 0-.75.107-1.015.32a1.89 1.89 0 0 0-.59.84c-.128.347-.191.72-.191 1.121s.063.774.191 1.117c.128.344.324.621.59.833.265.21.604.316 1.015.316Zm3.595.703v-.86h.219c.18 0 .329-.034.449-.105.12-.073.216-.2.289-.379.076-.182.133-.435.172-.758.042-.325.072-.74.09-1.242L265.32 87h4v6h-.922v-5.14h-2.203l-.093 2.14a9.85 9.85 0 0 1-.133 1.3 3.133 3.133 0 0 1-.301.938 1.38 1.38 0 0 1-.531.57c-.222.128-.499.192-.832.192h-.313Zm7.817-3.828h1.718c.703 0 1.241.178 1.614.535.372.357.558.809.558 1.356 0 .359-.083.686-.25.98a1.81 1.81 0 0 1-.734.7c-.323.171-.719.257-1.188.257h-2.515v-6h.922v5.14h1.593c.365 0 .664-.096.899-.288a.918.918 0 0 0 .351-.743.977.977 0 0 0-.351-.777c-.235-.2-.534-.3-.899-.3h-1.718v-.86Zm9.309.406v.86h-3.312v-.86h3.312ZM278.024 87v6h-.921v-6h.921Zm3.797 0v6h-.922v-6h.922Zm4.121 6.125c-.541 0-1.017-.129-1.425-.387a2.63 2.63 0 0 1-.954-1.082c-.226-.463-.339-1.005-.339-1.625 0-.625.113-1.17.339-1.637.23-.466.547-.828.954-1.085.408-.258.884-.387 1.425-.387.542 0 1.016.129 1.422.387.409.257.727.62.953 1.085.23.467.344 1.012.344 1.637 0 .62-.114 1.162-.344 1.625a2.586 2.586 0 0 1-.953 1.082c-.406.258-.88.387-1.422.387Zm0-.828c.412 0 .75-.106 1.016-.316.266-.212.462-.489.59-.833.127-.343.191-.716.191-1.117 0-.4-.064-.775-.191-1.12a1.89 1.89 0 0 0-.59-.84c-.266-.214-.604-.321-1.016-.321-.411 0-.75.107-1.015.32a1.89 1.89 0 0 0-.59.84c-.128.347-.191.72-.191 1.121s.063.774.191 1.117c.128.344.324.621.59.833.265.21.604.316 1.015.316Zm6.642.828c-.578 0-1.077-.128-1.496-.383a2.57 2.57 0 0 1-.965-1.078c-.224-.463-.336-1.002-.336-1.617s.112-1.156.336-1.625c.227-.471.542-.839.945-1.102.407-.265.881-.398 1.422-.398.313 0 .621.052.926.156.305.104.582.274.832.508.25.232.449.539.598.922.148.383.222.854.222 1.414v.39h-4.625v-.796h3.688c0-.339-.068-.641-.203-.907a1.529 1.529 0 0 0-.571-.628 1.593 1.593 0 0 0-.867-.231c-.367 0-.685.091-.953.273-.266.18-.47.415-.613.704a2.068 2.068 0 0 0-.215.93v.53c0 .454.078.838.234 1.153.159.312.379.55.661.715.281.161.608.242.98.242.242 0 .461-.034.656-.102.198-.07.369-.174.512-.312.143-.14.254-.315.332-.524l.891.25a1.981 1.981 0 0 1-.473.797 2.304 2.304 0 0 1-.82.531 3.047 3.047 0 0 1-1.098.188ZM249.931 99v6h-.922v-6h.922Zm-.36 2.859v.86a8.688 8.688 0 0 1-.621.207 5.3 5.3 0 0 1-.648.136 5.374 5.374 0 0 1-.746.047c-.68 0-1.226-.183-1.637-.55-.409-.368-.613-.918-.613-1.653v-1.922h.922v1.922c0 .308.058.56.175.758.118.198.276.345.477.441.2.097.426.145.676.145.39 0 .743-.035 1.058-.105.318-.073.637-.168.957-.286Zm2.973 1.782L255.435 99h1.062v6h-.922v-4.641L252.7 105h-1.078v-6h.922v4.641Zm8.079 1.484c-.562 0-1.047-.133-1.453-.398a2.605 2.605 0 0 1-.938-1.098c-.218-.466-.328-.999-.328-1.598 0-.609.112-1.147.336-1.613.227-.469.542-.835.946-1.098.406-.265.88-.398 1.421-.398.422 0 .803.078 1.141.234.339.156.616.375.832.656.216.282.35.61.402.985h-.921a1.435 1.435 0 0 0-.469-.727c-.24-.213-.563-.32-.969-.32-.359 0-.674.094-.945.281a1.837 1.837 0 0 0-.629.785c-.149.336-.223.731-.223 1.184 0 .464.073.867.219 1.211.148.344.357.611.625.801.271.19.588.285.953.285.24 0 .457-.042.652-.125.196-.083.361-.203.496-.36.136-.156.232-.343.29-.562h.921a2.143 2.143 0 0 1-.386.957 2.167 2.167 0 0 1-.809.672c-.333.164-.721.246-1.164.246Zm3.176-.125v-.859h.219a.88.88 0 0 0 .449-.106c.12-.073.216-.199.289-.379.075-.182.133-.435.172-.758.041-.325.071-.739.09-1.242l.109-2.656h4v6h-.922v-5.14h-2.203l-.094 2.14a9.69 9.69 0 0 1-.133 1.301 3.129 3.129 0 0 1-.3.937c-.133.253-.31.443-.532.571-.221.127-.498.191-.832.191h-.312Zm9.457.125c-.542 0-1.017-.129-1.426-.387a2.626 2.626 0 0 1-.953-1.082c-.227-.463-.34-1.005-.34-1.625 0-.625.113-1.17.34-1.636a2.62 2.62 0 0 1 .953-1.086c.409-.258.884-.387 1.426-.387.542 0 1.015.129 1.422.387.409.257.726.62.953 1.086.229.466.344 1.011.344 1.636 0 .62-.115 1.162-.344 1.625a2.591 2.591 0 0 1-.953 1.082c-.407.258-.88.387-1.422.387Zm0-.828c.411 0 .75-.106 1.015-.317.266-.21.463-.488.59-.832.128-.343.192-.716.192-1.117s-.064-.774-.192-1.121a1.887 1.887 0 0 0-.59-.84c-.265-.213-.604-.32-1.015-.32-.412 0-.75.107-1.016.32a1.903 1.903 0 0 0-.59.84c-.127.347-.191.72-.191 1.121s.064.774.191 1.117c.128.344.325.622.59.832.266.211.604.317 1.016.317ZM55.947 93l-2.75-3.672h-.984V93h-.969v-8h.969v3.469h.422L55.838 85h1.156l-3.234 3.516L57.103 93h-1.156Zm4.28.125c-.541 0-1.016-.129-1.425-.387a2.627 2.627 0 0 1-.953-1.082c-.227-.463-.34-1.005-.34-1.625 0-.625.113-1.17.34-1.637.229-.466.547-.828.953-1.085.409-.258.884-.387 1.425-.387.542 0 1.016.129 1.422.387.41.257.727.62.953 1.085.23.467.344 1.012.344 1.637 0 .62-.114 1.162-.343 1.625a2.59 2.59 0 0 1-.954 1.082c-.406.258-.88.387-1.422.387Zm0-.828c.412 0 .75-.106 1.016-.316.266-.212.462-.489.59-.833.128-.343.191-.716.191-1.117 0-.4-.063-.775-.191-1.12a1.89 1.89 0 0 0-.59-.84c-.266-.214-.604-.321-1.016-.321-.41 0-.75.107-1.015.32a1.89 1.89 0 0 0-.59.84c-.127.347-.191.72-.191 1.121s.064.774.191 1.117c.128.344.324.621.59.833.265.21.604.316 1.015.316Zm3.486 2.422V92.14h.5c.122-.128.228-.266.316-.414a2.55 2.55 0 0 0 .23-.528 4.89 4.89 0 0 0 .173-.75c.046-.297.088-.655.125-1.074L65.26 87h3.812v5.14h.922v2.579h-.922V93h-4.437v1.719h-.922Zm1.547-2.578h2.89v-4.282h-2.03l-.157 1.516a16.948 16.948 0 0 1-.242 1.644c-.097.47-.25.843-.461 1.122Zm13.067-2.563v.86h-3.312v-.86h3.312ZM75.233 87v6h-.922v-6h.922Zm3.797 0v6h-.922v-6h.922Zm3.45 6.14c-.38 0-.726-.071-1.036-.214a1.776 1.776 0 0 1-.738-.63c-.182-.275-.273-.609-.273-1 0-.343.067-.622.203-.835.135-.216.316-.385.543-.508.226-.122.476-.213.75-.273.276-.063.553-.112.832-.149.364-.047.66-.082.886-.105.23-.026.396-.07.5-.13.107-.059.16-.163.16-.312v-.03c0-.386-.105-.686-.316-.9-.208-.213-.525-.32-.949-.32-.44 0-.785.097-1.035.29-.25.192-.426.398-.528.617l-.874-.313c.156-.365.364-.648.624-.851a2.34 2.34 0 0 1 .86-.43c.312-.084.62-.125.922-.125.193 0 .414.023.664.07.252.044.496.137.73.277.237.141.434.353.59.637.156.284.234.664.234 1.14V93h-.921v-.813h-.047c-.063.13-.167.27-.313.419-.146.148-.34.274-.582.378-.242.105-.537.157-.886.157Zm.14-.828c.365 0 .672-.071.922-.214a1.464 1.464 0 0 0 .766-1.27v-.844c-.04.047-.125.09-.258.13a4.35 4.35 0 0 1-.453.097 20.215 20.215 0 0 1-.883.117c-.24.031-.464.082-.672.153-.206.067-.372.17-.5.308-.125.135-.188.32-.188.555 0 .32.119.562.356.726.24.162.543.243.91.243Zm3.76.688v-.86h.22c.18 0 .329-.034.449-.105.12-.073.216-.2.289-.379.075-.182.133-.435.172-.758.041-.325.071-.74.09-1.242L87.709 87h4v6h-.922v-5.14h-2.203L88.49 90c-.02.492-.065.926-.133 1.3a3.122 3.122 0 0 1-.3.938c-.133.253-.31.443-.532.57-.221.128-.498.192-.832.192h-.312Zm9.458.125c-.542 0-1.017-.129-1.426-.387a2.628 2.628 0 0 1-.953-1.082c-.227-.463-.34-1.005-.34-1.625 0-.625.113-1.17.34-1.637.23-.466.547-.828.953-1.085.409-.258.884-.387 1.426-.387.542 0 1.016.129 1.422.387.409.257.726.62.953 1.085.23.467.344 1.012.344 1.637 0 .62-.115 1.162-.344 1.625a2.592 2.592 0 0 1-.953 1.082c-.407.258-.88.387-1.422.387Zm0-.828c.411 0 .75-.106 1.016-.316.265-.212.462-.489.59-.833.127-.343.19-.716.19-1.117 0-.4-.063-.775-.19-1.12a1.89 1.89 0 0 0-.59-.84c-.266-.214-.605-.321-1.016-.321-.412 0-.75.107-1.016.32a1.89 1.89 0 0 0-.59.84c-.127.347-.191.72-.191 1.121s.064.774.191 1.117c.128.344.325.621.59.833.266.21.604.316 1.016.316ZM103.667 87v.86h-2.781V93h-.922v-6h3.703Zm3.472 6.125c-.542 0-1.017-.129-1.426-.387a2.627 2.627 0 0 1-.953-1.082c-.227-.463-.34-1.005-.34-1.625 0-.625.113-1.17.34-1.637.229-.466.547-.828.953-1.085.409-.258.884-.387 1.426-.387.541 0 1.015.129 1.422.387.408.257.726.62.953 1.085.229.467.343 1.012.343 1.637 0 .62-.114 1.162-.343 1.625a2.6 2.6 0 0 1-.953 1.082c-.407.258-.881.387-1.422.387Zm0-.828c.411 0 .75-.106 1.015-.316.266-.212.463-.489.59-.833.128-.343.192-.716.192-1.117 0-.4-.064-.775-.192-1.12a1.882 1.882 0 0 0-.59-.84c-.265-.214-.604-.321-1.015-.321-.412 0-.75.107-1.016.32a1.89 1.89 0 0 0-.59.84c-.127.347-.191.72-.191 1.121s.064.774.191 1.117c.128.344.324.621.59.833.266.21.604.316 1.016.316Zm4.126.703v-6h2.453c.646 0 1.159.146 1.539.438.38.291.57.677.57 1.156 0 .364-.108.647-.324.847a1.724 1.724 0 0 1-.832.403c.221.031.436.11.644.234.211.125.386.297.524.516.138.216.207.482.207.797 0 .307-.078.582-.234.824a1.615 1.615 0 0 1-.672.574c-.292.14-.641.211-1.047.211h-2.828Zm.875-.844h1.953c.317 0 .566-.075.746-.226.18-.151.269-.357.269-.618 0-.31-.089-.553-.269-.73-.18-.18-.429-.27-.746-.27h-1.953v1.844Zm0-2.64h1.578c.247 0 .459-.034.636-.102a.9.9 0 0 0 .407-.297.756.756 0 0 0 .144-.46.679.679 0 0 0-.316-.594c-.211-.146-.501-.22-.871-.22h-1.578v1.673Zm7.739 3.609c-.542 0-1.017-.129-1.426-.387a2.627 2.627 0 0 1-.953-1.082c-.227-.463-.34-1.005-.34-1.625 0-.625.113-1.17.34-1.637.229-.466.547-.828.953-1.085.409-.258.884-.387 1.426-.387.542 0 1.016.129 1.422.387.409.257.726.62.953 1.085.229.467.344 1.012.344 1.637 0 .62-.115 1.162-.344 1.625a2.593 2.593 0 0 1-.953 1.082c-.406.258-.88.387-1.422.387Zm0-.828c.411 0 .75-.106 1.016-.316.265-.212.462-.489.589-.833.128-.343.192-.716.192-1.117 0-.4-.064-.775-.192-1.12a1.888 1.888 0 0 0-.589-.84c-.266-.214-.605-.321-1.016-.321-.412 0-.75.107-1.016.32a1.898 1.898 0 0 0-.59.84c-.127.347-.191.72-.191 1.121s.064.774.191 1.117c.128.344.325.621.59.833.266.21.604.316 1.016.316Zm5.048-.656 2.89-4.641h1.063v6h-.922v-4.64L125.083 93h-1.078v-6h.922v4.64ZM127.208 85h.859c0 .422-.145.767-.437 1.035-.292.268-.688.403-1.188.403-.492 0-.884-.135-1.175-.403-.289-.268-.434-.613-.434-1.035h.859c0 .203.056.382.168.535.115.154.309.23.582.23.274 0 .469-.076.586-.23a.845.845 0 0 0 .18-.535Zm-64.409 18.641L65.69 99h1.063v6h-.921v-4.641L62.956 105h-1.079v-6h.922v4.641Zm9.658-2.063v.859h-3.313v-.859h3.313ZM69.363 99v6h-.922v-6h.922Zm3.797 0v6h-.922v-6h.922Zm4.12 6.125c-.562 0-1.046-.133-1.452-.398a2.601 2.601 0 0 1-.938-1.098c-.219-.466-.328-.999-.328-1.598 0-.609.112-1.147.336-1.613.227-.469.542-.835.945-1.098.406-.265.88-.398 1.422-.398.422 0 .802.078 1.14.234.34.156.617.375.833.656.216.282.35.61.402.985h-.922a1.429 1.429 0 0 0-.469-.727c-.24-.213-.562-.32-.968-.32-.36 0-.675.094-.946.281a1.836 1.836 0 0 0-.628.785c-.149.336-.223.731-.223 1.184 0 .464.073.867.219 1.211.148.344.356.611.625.801.27.19.588.285.953.285.24 0 .457-.042.652-.125a1.335 1.335 0 0 0 .785-.922h.922a2.136 2.136 0 0 1-1.195 1.629c-.333.164-.721.246-1.164.246Zm3.708-.125v-6h4.719v6h-.922v-5.14H81.91V105h-.922Zm8.918.125c-.578 0-1.077-.128-1.496-.383a2.57 2.57 0 0 1-.965-1.078c-.224-.463-.336-1.003-.336-1.617 0-.615.112-1.156.336-1.625a2.65 2.65 0 0 1 .945-1.102c.406-.265.88-.398 1.422-.398.313 0 .621.052.926.156.305.104.582.274.832.508.25.232.449.539.598.922.148.383.222.854.222 1.414v.39h-4.625v-.796h3.688a1.97 1.97 0 0 0-.204-.907 1.532 1.532 0 0 0-.57-.628 1.597 1.597 0 0 0-.867-.231c-.367 0-.685.091-.953.273-.266.18-.47.414-.613.704a2.065 2.065 0 0 0-.215.929v.532c0 .453.078.837.234 1.152.159.312.379.551.66.715.282.161.608.242.98.242.243 0 .462-.034.657-.102a1.4 1.4 0 0 0 .512-.312 1.42 1.42 0 0 0 .332-.524l.89.25a1.975 1.975 0 0 1-.472.797 2.29 2.29 0 0 1-.82.531 3.02 3.02 0 0 1-1.098.188Zm3.886-.125v-6h.922v2.609h.61L97.48 99h1.188l-2.422 2.891L98.699 105H97.51l-1.968-2.531h-.829V105h-.921Zm10.627-6v5.141h.844v2.797h-.922V105h-4.64v-6h.922v5.141h2.875V99h.921Zm3.186 4.641L110.496 99h1.062v6h-.922v-4.641L107.761 105h-1.078v-6h.922v4.641Zm6.563 0L117.059 99h1.063v6h-.922v-4.641L114.325 105h-1.078v-6h.921v4.641ZM136.015 2v8h-.969V2.86h-4.031V10h-.969V2h5.969Zm4.267 8.125c-.542 0-1.017-.129-1.426-.387a2.628 2.628 0 0 1-.953-1.082c-.227-.463-.34-1.005-.34-1.625 0-.625.113-1.17.34-1.636.229-.467.547-.829.953-1.086.409-.258.884-.387 1.426-.387.541 0 1.015.129 1.422.387.408.257.726.62.953 1.086.229.466.343 1.011.343 1.636 0 .62-.114 1.162-.343 1.625a2.6 2.6 0 0 1-.953 1.082c-.407.258-.881.387-1.422.387Zm0-.828c.411 0 .75-.106 1.015-.317.266-.21.463-.488.59-.832.128-.343.192-.716.192-1.117 0-.4-.064-.774-.192-1.12a1.882 1.882 0 0 0-.59-.84c-.265-.214-.604-.321-1.015-.321-.412 0-.75.107-1.016.32a1.89 1.89 0 0 0-.59.84c-.127.347-.191.72-.191 1.121s.064.774.191 1.117c.128.344.324.622.59.832.266.211.604.317 1.016.317Zm4.126 2.953V4h.89v.953h.11c.067-.104.161-.237.281-.398.122-.164.297-.31.523-.438.23-.13.539-.195.93-.195.505 0 .951.126 1.336.379.385.252.686.61.902 1.074.217.464.325 1.01.325 1.64 0 .636-.108 1.187-.325 1.653a2.555 2.555 0 0 1-.898 1.078 2.349 2.349 0 0 1-1.324.379c-.386 0-.694-.064-.926-.191a1.712 1.712 0 0 1-.535-.442 5.675 5.675 0 0 1-.289-.414h-.078v3.172h-.922Zm.906-5.25c0 .453.066.853.199 1.2.133.343.327.613.582.808.255.193.568.289.938.289.385 0 .707-.102.965-.305.26-.206.455-.482.585-.828.133-.349.2-.737.2-1.164a3.14 3.14 0 0 0-.196-1.14 1.754 1.754 0 0 0-.582-.81c-.257-.2-.582-.3-.972-.3-.375 0-.69.095-.946.285-.255.188-.448.45-.578.79-.13.335-.195.727-.195 1.175Zm9.406 3V4.844h-1.594c-.359 0-.641.083-.847.25-.206.166-.309.396-.309.687 0 .287.093.512.278.676.187.164.444.246.769.246h1.938v.86h-1.938c-.406 0-.756-.072-1.051-.215a1.567 1.567 0 0 1-.679-.614 1.835 1.835 0 0 1-.239-.953c0-.37.084-.687.25-.953.167-.266.405-.47.715-.613.313-.143.684-.215 1.113-.215h2.469v6h-.875Zm-4 0 1.703-2.984h1L151.72 10h-1Zm5.927 1.719V9.14h.5a2.287 2.287 0 0 0 .547-.942c.068-.206.125-.456.172-.75.047-.297.088-.655.125-1.074L158.194 4h3.812v5.14h.922v2.579h-.922V10h-4.437v1.719h-.922Zm1.547-2.578h2.89V4.859h-2.031l-.156 1.516a17.05 17.05 0 0 1-.242 1.645c-.097.468-.25.842-.461 1.12Zm5.958.859V4h.922v2.61h.609L167.839 4h1.188l-2.422 2.89 2.453 3.11h-1.187l-1.969-2.531h-.828V10h-.922Zm8.098.125c-.541 0-1.016-.129-1.425-.387a2.62 2.62 0 0 1-.953-1.082c-.227-.463-.34-1.005-.34-1.625 0-.625.113-1.17.34-1.636.229-.467.546-.829.953-1.086.409-.258.884-.387 1.425-.387.542 0 1.016.129 1.422.387.409.257.727.62.953 1.086.23.466.344 1.011.344 1.636 0 .62-.114 1.162-.344 1.625a2.586 2.586 0 0 1-.953 1.082c-.406.258-.88.387-1.422.387Zm0-.828c.412 0 .75-.106 1.016-.317.266-.21.462-.488.59-.832.128-.343.191-.716.191-1.117 0-.4-.063-.774-.191-1.12a1.89 1.89 0 0 0-.59-.84c-.266-.214-.604-.321-1.016-.321-.411 0-.75.107-1.015.32a1.89 1.89 0 0 0-.59.84c-.128.347-.191.72-.191 1.121s.063.774.191 1.117c.128.344.324.622.59.832.265.211.604.317 1.015.317Zm4.126.703V4h2.454c.645 0 1.158.146 1.539.438.38.291.57.677.57 1.156 0 .364-.108.647-.324.847a1.723 1.723 0 0 1-.832.403c.221.031.436.11.644.234.211.125.386.297.524.516.138.216.207.482.207.797 0 .307-.078.582-.235.824-.156.242-.38.433-.672.574-.291.14-.64.211-1.046.211h-2.829Zm.875-.844h1.954c.317 0 .566-.075.746-.226a.765.765 0 0 0 .269-.617c0-.31-.09-.554-.269-.731-.18-.18-.429-.27-.746-.27h-1.954v1.844Zm0-2.64h1.579c.247 0 .459-.034.636-.102a.904.904 0 0 0 .407-.297.755.755 0 0 0 .144-.46.68.68 0 0 0-.316-.595c-.211-.145-.502-.218-.871-.218h-1.579v1.672Zm6.099-.344h1.719c.703 0 1.241.178 1.613.535.373.357.559.809.559 1.356 0 .359-.084.686-.25.98a1.818 1.818 0 0 1-.735.7c-.323.171-.718.257-1.187.257h-2.516V4h.922v5.14h1.594c.364 0 .664-.096.898-.288a.916.916 0 0 0 .352-.743.974.974 0 0 0-.352-.777c-.234-.2-.534-.3-.898-.3h-1.719v-.86ZM188.194 10V4h.922v6h-.922Zm3.531-1.36L194.616 4h1.062v6h-.922V5.36L191.881 10h-1.078V4h.922v4.64ZM194.006 2h.86c0 .422-.146.767-.438 1.035-.291.268-.687.402-1.187.402-.492 0-.884-.134-1.176-.402-.289-.268-.434-.613-.434-1.035h.86c0 .203.056.382.168.535.114.154.308.23.582.23.273 0 .468-.076.586-.23a.85.85 0 0 0 .179-.535Zm10.47 4.578v.86h-3.312v-.86h3.312ZM201.382 4v6h-.922V4h.922Zm3.797 0v6h-.922V4h.922Zm4.121 6.125c-.541 0-1.017-.129-1.425-.387a2.63 2.63 0 0 1-.954-1.082c-.226-.463-.339-1.005-.339-1.625 0-.625.113-1.17.339-1.636.23-.467.547-.829.954-1.086.408-.258.884-.387 1.425-.387.542 0 1.016.129 1.422.387.409.257.727.62.953 1.086.229.466.344 1.011.344 1.636 0 .62-.115 1.162-.344 1.625a2.586 2.586 0 0 1-.953 1.082c-.406.258-.88.387-1.422.387Zm0-.828c.412 0 .75-.106 1.016-.317.266-.21.462-.488.59-.832a3.2 3.2 0 0 0 .191-1.117c0-.4-.064-.774-.191-1.12a1.89 1.89 0 0 0-.59-.84c-.266-.214-.604-.321-1.016-.321-.411 0-.75.107-1.015.32a1.882 1.882 0 0 0-.59.84c-.128.347-.192.72-.192 1.121s.064.774.192 1.117c.127.344.324.622.59.832.265.211.604.317 1.015.317Zm7.408-.547L218.801 4h.875l-2.593 6h-.75l-2.547-6h.859l2.063 4.75ZM214.348 4v6h-.922V4h.922Zm4.719 6V4h.922v6h-.922Zm5.125.125c-.578 0-1.077-.128-1.496-.383a2.57 2.57 0 0 1-.965-1.078c-.224-.463-.336-1.003-.336-1.617 0-.615.112-1.156.336-1.625.227-.471.542-.839.945-1.102.407-.265.88-.398 1.422-.398.313 0 .621.052.926.156.305.104.582.274.832.508.25.232.449.539.598.922.148.383.222.854.222 1.414v.39h-4.625v-.796h3.688c0-.339-.068-.641-.203-.907a1.53 1.53 0 0 0-.571-.629 1.595 1.595 0 0 0-.867-.23c-.367 0-.685.091-.953.273-.266.18-.47.415-.613.704-.143.289-.215.599-.215.93v.53c0 .454.078.838.234 1.153.159.312.379.55.66.715.282.161.608.242.981.242.242 0 .461-.034.656-.102.198-.07.369-.174.512-.312.143-.14.254-.315.332-.524l.891.25a1.982 1.982 0 0 1-.473.797 2.304 2.304 0 0 1-.82.531 3.047 3.047 0 0 1-1.098.188Zm3.887 2.125V4h.89v.953h.11c.067-.104.161-.237.281-.398.122-.164.297-.31.523-.438.229-.13.539-.195.93-.195.505 0 .951.126 1.336.379.385.252.686.61.902 1.074.216.464.324 1.01.324 1.64 0 .636-.108 1.187-.324 1.653a2.555 2.555 0 0 1-.898 1.078 2.349 2.349 0 0 1-1.324.379c-.386 0-.694-.064-.926-.191a1.712 1.712 0 0 1-.535-.442 5.675 5.675 0 0 1-.289-.414H229v3.172h-.921Zm.906-5.25c0 .453.066.853.199 1.2.133.343.327.613.582.808.255.193.568.289.938.289.385 0 .707-.102.964-.305.261-.206.456-.482.586-.828.133-.349.2-.737.2-1.164a3.14 3.14 0 0 0-.196-1.14 1.754 1.754 0 0 0-.582-.81c-.258-.2-.582-.3-.972-.3-.375 0-.69.095-.946.285-.255.188-.448.45-.578.79-.13.335-.195.727-.195 1.175ZM6.135 10l-2.75-3.672H2.4V10h-.968V2H2.4v3.469h.422L6.025 2h1.157L3.947 5.516 7.291 10H6.135Zm4.28.125c-.542 0-1.017-.129-1.426-.387a2.627 2.627 0 0 1-.953-1.082c-.226-.463-.34-1.005-.34-1.625 0-.625.114-1.17.34-1.636.23-.467.547-.829.953-1.086.41-.258.884-.387 1.426-.387.542 0 1.016.129 1.422.387.409.257.726.62.953 1.086.23.466.344 1.011.344 1.636 0 .62-.115 1.162-.344 1.625a2.59 2.59 0 0 1-.953 1.082c-.406.258-.88.387-1.422.387Zm0-.828c.412 0 .75-.106 1.016-.317.265-.21.462-.488.59-.832.127-.343.19-.716.19-1.117 0-.4-.063-.774-.19-1.12a1.89 1.89 0 0 0-.59-.84c-.266-.214-.604-.321-1.016-.321-.411 0-.75.107-1.016.32a1.89 1.89 0 0 0-.59.84c-.127.347-.19.72-.19 1.121s.063.774.19 1.117c.128.344.325.622.59.832.266.211.605.317 1.016.317Zm3.485 2.422V9.14h.5a2.294 2.294 0 0 0 .547-.942c.068-.206.125-.456.172-.75.047-.297.089-.655.125-1.074L15.447 4h3.813v5.14h.922v2.579h-.922V10h-4.438v1.719H13.9Zm1.547-2.578h2.89V4.859h-2.03l-.157 1.516a16.951 16.951 0 0 1-.242 1.645c-.096.468-.25.842-.46 1.12ZM24.5 12.25V4h.89v.953h.11a8.22 8.22 0 0 1 .281-.398c.123-.164.297-.31.524-.438.229-.13.539-.195.93-.195.505 0 .95.126 1.335.379.386.252.687.61.903 1.074.216.464.324 1.01.324 1.64 0 .636-.108 1.187-.324 1.653a2.558 2.558 0 0 1-.899 1.078 2.349 2.349 0 0 1-1.324.379c-.385 0-.694-.064-.926-.191a1.716 1.716 0 0 1-.535-.442 5.912 5.912 0 0 1-.289-.414h-.078v3.172h-.922ZM25.405 7c0 .453.067.853.2 1.2.132.343.326.613.581.808.256.193.568.289.938.289.385 0 .707-.102.965-.305.26-.206.456-.482.586-.828.133-.349.199-.737.199-1.164 0-.422-.065-.802-.195-1.14a1.763 1.763 0 0 0-.582-.81c-.258-.2-.582-.3-.973-.3-.375 0-.69.095-.945.285-.255.188-.448.45-.578.79-.13.335-.196.727-.196 1.175Zm8.313 3.125c-.578 0-1.077-.128-1.496-.383a2.57 2.57 0 0 1-.965-1.078c-.224-.463-.336-1.003-.336-1.617 0-.615.112-1.156.336-1.625a2.65 2.65 0 0 1 .945-1.102c.406-.265.88-.398 1.422-.398.313 0 .621.052.926.156.305.104.582.274.832.508.25.232.45.539.598.922.148.383.222.854.222 1.414v.39h-4.625v-.796h3.688c0-.339-.068-.641-.203-.907a1.53 1.53 0 0 0-.57-.629 1.597 1.597 0 0 0-.868-.23c-.367 0-.685.091-.953.273-.266.18-.47.415-.613.704-.144.289-.215.599-.215.93v.53c0 .454.078.838.234 1.153.159.312.38.55.66.715.282.161.608.242.98.242.243 0 .462-.034.657-.102.198-.07.368-.174.512-.312a1.42 1.42 0 0 0 .332-.524l.89.25a1.975 1.975 0 0 1-.472.797 2.303 2.303 0 0 1-.82.531 3.042 3.042 0 0 1-1.098.188ZM41.308 4v.86h-2.782V10h-.922V4h3.704Zm2.267 4.64L46.465 4h1.063v6h-.922V5.36L43.731 10h-1.078V4h.922v4.64Zm8.08 1.485c-.542 0-1.018-.129-1.427-.387a2.628 2.628 0 0 1-.953-1.082c-.226-.463-.34-1.005-.34-1.625 0-.625.114-1.17.34-1.636.23-.467.547-.829.953-1.086.41-.258.885-.387 1.426-.387.542 0 1.016.129 1.422.387.409.257.727.62.953 1.086.23.466.344 1.011.344 1.636 0 .62-.114 1.162-.344 1.625a2.592 2.592 0 0 1-.953 1.082c-.406.258-.88.387-1.422.387Zm0-.828c.41 0 .75-.106 1.015-.317.265-.21.462-.488.59-.832.127-.343.191-.716.191-1.117 0-.4-.064-.774-.191-1.12a1.89 1.89 0 0 0-.59-.84c-.266-.214-.604-.321-1.016-.321-.411 0-.75.107-1.015.32a1.889 1.889 0 0 0-.59.84c-.128.347-.192.72-.192 1.121s.064.774.192 1.117c.127.344.324.622.59.832.265.211.604.317 1.015.317Zm8.14-2.719v.86h-3.312v-.86h3.313ZM56.703 4v6h-.922V4h.922ZM60.5 4v6h-.922V4h.922Zm3.45 6.14c-.381 0-.726-.071-1.036-.214a1.777 1.777 0 0 1-.738-.63c-.182-.275-.274-.608-.274-1 0-.343.068-.622.203-.835.136-.216.317-.385.544-.508.226-.122.476-.213.75-.273.275-.063.553-.112.831-.149.365-.047.66-.082.887-.105.23-.026.396-.07.5-.13.107-.059.16-.163.16-.312v-.03c0-.386-.105-.686-.316-.9-.208-.213-.525-.32-.95-.32-.44 0-.784.097-1.034.29-.25.192-.426.398-.528.617l-.875-.313c.157-.364.365-.648.625-.851.263-.206.55-.35.86-.43.312-.083.62-.125.922-.125.192 0 .414.023.664.07.252.044.496.137.73.278.237.14.434.352.59.636.156.284.234.664.234 1.14V10h-.922v-.813h-.046c-.063.13-.167.27-.313.418-.146.149-.34.275-.582.38-.242.104-.538.156-.887.156Zm.14-.828c.365 0 .672-.071.922-.214a1.463 1.463 0 0 0 .765-1.27v-.844c-.039.047-.125.09-.257.13-.13.036-.282.068-.454.097a20.52 20.52 0 0 1-.882.117c-.24.031-.464.082-.672.152-.206.068-.373.171-.5.31-.125.134-.188.32-.188.554 0 .32.119.562.356.726.24.162.543.242.91.242Z"/></svg>