<svg xmlns="http://www.w3.org/2000/svg" width="268" height="120" fill="none"><path fill="#161616" d="m15.704 46.818 6.75 10.892h.205l6.75-10.892h3.733L24.909 59.91 33.142 73h-3.733l-6.75-10.688h-.204L15.704 73h-3.733l8.437-13.09-8.437-13.092h3.732Zm23.098 0 6.75 10.892h.205l6.75-10.892h3.733L48.007 59.91 56.24 73h-3.733l-6.75-10.688h-.205L38.802 73H35.07l8.438-13.09-8.438-13.092h3.733Zm33.223 0 6.75 10.892h.204l6.75-10.892h3.733L81.23 59.91 89.462 73H85.73l-6.75-10.688h-.204L72.025 73h-3.733l8.437-13.09-8.437-13.092h3.733Zm23.097 0 6.751 10.892h.204l6.75-10.892h3.733l-8.233 13.091L112.56 73h-3.733l-6.75-10.688h-.204L95.123 73H91.39l8.437-13.09-8.437-13.092h3.733Zm33.223 0 6.75 10.892h.205l6.75-10.892h3.733L137.55 59.91 145.783 73h-3.733l-6.75-10.688h-.205L128.345 73h-3.733l8.438-13.09-8.438-13.092h3.733Zm23.098 0 6.75 10.892h.204l6.75-10.892h3.733l-8.233 13.091L168.88 73h-3.733l-6.75-10.688h-.204L151.443 73h-3.733l8.437-13.09-8.437-13.092h3.733Zm33.222 0 6.75 10.892h.205l6.75-10.892h3.733L193.87 59.91 202.103 73h-3.733l-6.75-10.688h-.205L184.665 73h-3.732l8.437-13.09-8.437-13.092h3.732Zm23.098 0 6.75 10.892h.205l6.75-10.892h3.733l-8.233 13.091L225.201 73h-3.733l-6.75-10.688h-.205L207.763 73h-3.733l8.438-13.09-8.438-13.092h3.733Zm23.098 0 6.75 10.892h.204l6.75-10.892h3.733l-8.233 13.091L248.298 73h-3.733l-6.75-10.688h-.204L230.861 73h-3.733l8.437-13.09-8.437-13.092h3.733Z"/><path stroke="#CCC" d="M124.75 37.5h44M12 37.5h44M68.5 82.5h44M181.375 82.5h67M214.875 83v12M34.5 25v12M91 83v12M147.25 25v12"/><path fill="#555" d="M168.89 97v8h-.969v-7.14h-4.031V105h-.969v-8h5.969Zm4.267 8.125c-.542 0-1.017-.129-1.426-.387a2.626 2.626 0 0 1-.953-1.082c-.227-.463-.34-1.005-.34-1.625 0-.625.113-1.17.34-1.636a2.62 2.62 0 0 1 .953-1.086c.409-.258.884-.387 1.426-.387.541 0 1.015.129 1.422.387.408.257.726.62.953 1.086.229.466.343 1.011.343 1.636 0 .62-.114 1.162-.343 1.625a2.598 2.598 0 0 1-.953 1.082c-.407.258-.881.387-1.422.387Zm0-.828c.411 0 .75-.106 1.015-.317.266-.21.463-.488.59-.832.128-.343.192-.716.192-1.117s-.064-.774-.192-1.121a1.887 1.887 0 0 0-.59-.84c-.265-.213-.604-.32-1.015-.32-.412 0-.75.107-1.016.32a1.895 1.895 0 0 0-.59.84c-.127.347-.191.72-.191 1.121s.064.774.191 1.117c.128.344.324.622.59.832.266.211.604.317 1.016.317Zm4.126 2.953V99h.89v.953h.11c.067-.104.161-.237.281-.398.122-.164.297-.31.523-.438.23-.13.539-.195.93-.195.505 0 .951.126 1.336.379.385.252.686.61.902 1.074.217.464.325 1.01.325 1.641 0 .635-.108 1.186-.325 1.652a2.55 2.55 0 0 1-.898 1.078 2.346 2.346 0 0 1-1.324.379c-.386 0-.694-.064-.926-.191a1.725 1.725 0 0 1-.535-.442 5.613 5.613 0 0 1-.289-.414h-.078v3.172h-.922Zm.906-5.25c0 .453.066.853.199 1.199.133.344.327.613.582.809.255.193.568.289.938.289.385 0 .707-.102.965-.305.26-.206.455-.482.585-.828.133-.349.2-.737.2-1.164 0-.422-.065-.802-.196-1.141a1.753 1.753 0 0 0-.582-.808c-.257-.2-.582-.301-.972-.301-.375 0-.69.095-.946.285a1.716 1.716 0 0 0-.578.789 3.25 3.25 0 0 0-.195 1.176Zm9.406 3v-5.156h-1.594c-.359 0-.641.083-.847.25-.206.166-.309.396-.309.687 0 .287.093.512.278.676.187.164.444.246.769.246h1.938v.859h-1.938c-.406 0-.756-.071-1.051-.214a1.571 1.571 0 0 1-.679-.614 1.835 1.835 0 0 1-.239-.953c0-.37.084-.687.25-.953.167-.266.405-.47.715-.613.313-.143.684-.215 1.113-.215h2.469v6h-.875Zm-4 0 1.703-2.984h1L184.595 105h-1Zm5.927 1.719v-2.578h.5c.122-.128.228-.266.316-.414.089-.149.166-.325.231-.528.068-.206.125-.456.172-.75.047-.297.088-.655.125-1.074l.203-2.375h3.812v5.141h.922v2.578h-.922V105h-4.437v1.719h-.922Zm1.547-2.578h2.89v-4.282h-2.031l-.156 1.516a17.054 17.054 0 0 1-.242 1.645c-.097.468-.25.842-.461 1.121Zm5.958.859v-6h.922v2.609h.609L200.714 99h1.188l-2.422 2.891 2.453 3.109h-1.187l-1.969-2.531h-.828V105h-.922Zm8.098.125c-.541 0-1.016-.129-1.425-.387a2.619 2.619 0 0 1-.953-1.082c-.227-.463-.34-1.005-.34-1.625 0-.625.113-1.17.34-1.636.229-.467.546-.829.953-1.086.409-.258.884-.387 1.425-.387.542 0 1.016.129 1.422.387.409.257.727.62.953 1.086.23.466.344 1.011.344 1.636 0 .62-.114 1.162-.344 1.625a2.584 2.584 0 0 1-.953 1.082c-.406.258-.88.387-1.422.387Zm0-.828c.412 0 .75-.106 1.016-.317a1.86 1.86 0 0 0 .59-.832c.128-.343.191-.716.191-1.117a3.21 3.21 0 0 0-.191-1.121 1.895 1.895 0 0 0-.59-.84c-.266-.213-.604-.32-1.016-.32-.411 0-.75.107-1.015.32a1.895 1.895 0 0 0-.59.84 3.21 3.21 0 0 0-.191 1.121c0 .401.063.774.191 1.117.128.344.324.622.59.832.265.211.604.317 1.015.317Zm4.126.703v-6h2.454c.645 0 1.158.146 1.539.438.38.291.57.677.57 1.156 0 .364-.108.647-.324.847a1.73 1.73 0 0 1-.832.403c.221.031.436.109.644.234.211.125.386.297.524.516.138.216.207.482.207.797 0 .307-.078.582-.235.824-.156.242-.38.433-.672.574-.291.141-.64.211-1.046.211h-2.829Zm.875-.844h1.954c.317 0 .566-.075.746-.226.179-.151.269-.357.269-.618 0-.309-.09-.553-.269-.73-.18-.18-.429-.27-.746-.27h-1.954v1.844Zm0-2.64h1.579c.247 0 .459-.034.636-.102a.9.9 0 0 0 .407-.297.755.755 0 0 0 .144-.461.681.681 0 0 0-.316-.594c-.211-.145-.502-.218-.871-.218h-1.579v1.672Zm6.099-.344h1.719c.703 0 1.241.178 1.613.535.373.357.559.809.559 1.355 0 .36-.084.687-.25.981a1.812 1.812 0 0 1-.735.699c-.323.172-.718.258-1.187.258h-2.516v-6h.922v5.141h1.594c.364 0 .664-.097.898-.289a.918.918 0 0 0 .352-.743.975.975 0 0 0-.352-.777c-.234-.2-.534-.301-.898-.301h-1.719v-.859Zm4.844 3.828v-6h.922v6h-.922Zm3.531-1.359L227.491 99h1.062v6h-.922v-4.641L224.756 105h-1.078v-6h.922v4.641ZM226.881 97h.86c0 .422-.146.767-.438 1.035-.291.268-.687.403-1.187.403-.492 0-.884-.135-1.176-.403-.289-.268-.434-.613-.434-1.035h.86c0 .203.056.382.168.535.114.154.308.23.582.23.273 0 .468-.076.586-.23a.85.85 0 0 0 .179-.535Zm10.47 4.578v.859h-3.312v-.859h3.312ZM234.257 99v6h-.922v-6h.922Zm3.797 0v6h-.922v-6h.922Zm4.121 6.125c-.541 0-1.017-.129-1.425-.387a2.628 2.628 0 0 1-.954-1.082c-.226-.463-.339-1.005-.339-1.625 0-.625.113-1.17.339-1.636.23-.467.547-.829.954-1.086.408-.258.884-.387 1.425-.387.542 0 1.016.129 1.422.387.409.257.727.62.953 1.086.229.466.344 1.011.344 1.636 0 .62-.115 1.162-.344 1.625a2.584 2.584 0 0 1-.953 1.082c-.406.258-.88.387-1.422.387Zm0-.828c.412 0 .75-.106 1.016-.317a1.86 1.86 0 0 0 .59-.832c.127-.343.191-.716.191-1.117s-.064-.774-.191-1.121a1.895 1.895 0 0 0-.59-.84c-.266-.213-.604-.32-1.016-.32-.411 0-.75.107-1.015.32a1.887 1.887 0 0 0-.59.84c-.128.347-.192.72-.192 1.121s.064.774.192 1.117c.127.344.324.622.59.832.265.211.604.317 1.015.317Zm7.408-.547 2.093-4.75h.875l-2.593 6h-.75l-2.547-6h.859l2.063 4.75Zm-2.36-4.75v6h-.922v-6h.922Zm4.719 6v-6h.922v6h-.922Zm5.125.125c-.578 0-1.077-.128-1.496-.383a2.57 2.57 0 0 1-.965-1.078c-.224-.463-.336-1.003-.336-1.617 0-.615.112-1.156.336-1.625.227-.471.542-.839.945-1.102.407-.265.88-.398 1.422-.398.313 0 .621.052.926.156.305.104.582.274.832.508.25.232.449.539.598.922.148.383.222.854.222 1.414v.39h-4.625v-.796h3.688c0-.339-.068-.641-.203-.907a1.531 1.531 0 0 0-.571-.628 1.595 1.595 0 0 0-.867-.231c-.367 0-.685.091-.953.273-.266.18-.47.414-.613.704a2.068 2.068 0 0 0-.215.929v.532c0 .453.078.837.234 1.152.159.312.379.551.66.715.282.161.608.242.981.242.242 0 .461-.034.656-.102.198-.07.369-.174.512-.312.143-.141.254-.315.332-.524l.891.25a1.982 1.982 0 0 1-.473.797 2.29 2.29 0 0 1-.82.531 3.026 3.026 0 0 1-1.098.188Zm3.887 2.125V99h.89v.953h.11c.067-.104.161-.237.281-.398.122-.164.297-.31.523-.438.229-.13.539-.195.93-.195.505 0 .951.126 1.336.379.385.252.686.61.902 1.074.216.464.324 1.01.324 1.641 0 .635-.108 1.186-.324 1.652a2.55 2.55 0 0 1-.898 1.078 2.346 2.346 0 0 1-1.324.379c-.386 0-.694-.064-.926-.191a1.725 1.725 0 0 1-.535-.442 5.613 5.613 0 0 1-.289-.414h-.079v3.172h-.921Zm.906-5.25c0 .453.066.853.199 1.199.133.344.327.613.582.809.255.193.568.289.938.289.385 0 .707-.102.964-.305a1.86 1.86 0 0 0 .586-.828c.133-.349.2-.737.2-1.164 0-.422-.065-.802-.196-1.141a1.753 1.753 0 0 0-.582-.808c-.258-.2-.582-.301-.972-.301-.375 0-.69.095-.946.285a1.716 1.716 0 0 0-.578.789 3.25 3.25 0 0 0-.195 1.176Zm-99.375 15v-6h4.719v6h-.922v-5.141h-2.875V117h-.922Zm8.84.125c-.541 0-1.017-.129-1.426-.387a2.626 2.626 0 0 1-.953-1.082c-.226-.463-.34-1.005-.34-1.625 0-.625.114-1.17.34-1.636.229-.467.547-.829.953-1.086.409-.258.885-.387 1.426-.387.542 0 1.016.129 1.422.387.409.257.727.619.953 1.086.229.466.344 1.011.344 1.636 0 .62-.115 1.162-.344 1.625a2.584 2.584 0 0 1-.953 1.082c-.406.258-.88.387-1.422.387Zm0-.828c.412 0 .75-.106 1.016-.317.265-.21.462-.488.59-.832.127-.343.191-.716.191-1.117s-.064-.774-.191-1.121a1.903 1.903 0 0 0-.59-.84c-.266-.213-.604-.32-1.016-.32-.411 0-.75.107-1.015.32a1.887 1.887 0 0 0-.59.84c-.128.347-.192.72-.192 1.121s.064.774.192 1.117c.127.344.324.622.59.832.265.211.604.317 1.015.317Zm6.564.828c-.563 0-1.047-.133-1.453-.398a2.598 2.598 0 0 1-.938-1.098c-.219-.466-.328-.999-.328-1.598 0-.609.112-1.147.336-1.613.226-.469.542-.835.945-1.098.406-.265.88-.398 1.422-.398.422 0 .802.078 1.141.234.338.156.616.375.832.656.216.282.35.61.402.985h-.922a1.422 1.422 0 0 0-.469-.727c-.239-.213-.562-.32-.968-.32-.36 0-.675.094-.946.281a1.837 1.837 0 0 0-.629.785c-.148.336-.222.731-.222 1.184 0 .464.073.867.219 1.211.148.344.356.611.625.801.27.19.588.285.953.285.239 0 .457-.042.652-.125a1.334 1.334 0 0 0 .785-.922h.922a2.133 2.133 0 0 1-1.195 1.629 2.61 2.61 0 0 1-1.164.246Zm3.234-5.266V111h4.875v.859h-1.969V117h-.922v-5.141h-1.984Zm7.674 5.282c-.38 0-.725-.072-1.035-.215a1.787 1.787 0 0 1-.739-.629c-.182-.276-.273-.61-.273-1 0-.344.068-.623.203-.836.136-.216.317-.385.543-.508.227-.122.477-.213.75-.273.276-.063.553-.112.832-.149.365-.047.66-.082.887-.105.229-.026.396-.069.5-.129.107-.06.16-.164.16-.313v-.031c0-.385-.105-.685-.316-.898-.209-.214-.525-.321-.95-.321-.44 0-.785.097-1.035.289-.25.193-.426.399-.527.618l-.875-.313c.156-.364.364-.648.625-.851a2.34 2.34 0 0 1 .859-.43c.313-.083.62-.125.922-.125.193 0 .414.023.664.07.253.044.496.137.731.278.237.14.433.352.59.636.156.284.234.664.234 1.141V117h-.922v-.813h-.047c-.062.131-.167.27-.312.418-.146.149-.34.275-.582.379-.243.105-.538.157-.887.157Zm.141-.829c.364 0 .671-.071.921-.214a1.468 1.468 0 0 0 .766-1.27v-.844c-.039.047-.125.09-.258.129-.13.037-.281.069-.453.098a21.818 21.818 0 0 1-.883.117 3.55 3.55 0 0 0-.672.152 1.169 1.169 0 0 0-.5.309c-.125.135-.187.32-.187.555 0 .32.118.562.355.726.24.162.543.242.911.242Zm8.307-2.734v.859h-3.312v-.859h3.312ZM194.151 111v6h-.922v-6h.922Zm3.797 0v6h-.922v-6h.922Zm4.121 6.125c-.541 0-1.017-.129-1.425-.387a2.628 2.628 0 0 1-.954-1.082c-.226-.463-.339-1.005-.339-1.625 0-.625.113-1.17.339-1.636.23-.467.547-.829.954-1.086.408-.258.884-.387 1.425-.387.542 0 1.016.129 1.422.387.409.257.727.619.953 1.086.23.466.344 1.011.344 1.636 0 .62-.114 1.162-.344 1.625a2.584 2.584 0 0 1-.953 1.082c-.406.258-.88.387-1.422.387Zm0-.828c.412 0 .75-.106 1.016-.317a1.86 1.86 0 0 0 .59-.832c.127-.343.191-.716.191-1.117s-.064-.774-.191-1.121a1.895 1.895 0 0 0-.59-.84c-.266-.213-.604-.32-1.016-.32-.411 0-.75.107-1.015.32a1.887 1.887 0 0 0-.59.84c-.128.347-.192.72-.192 1.121s.064.774.192 1.117c.127.344.324.622.59.832.265.211.604.317 1.015.317Zm4.126.703v-6h2.453c.646 0 1.159.146 1.54.438.38.291.57.677.57 1.156 0 .364-.108.647-.324.847a1.734 1.734 0 0 1-.832.403c.221.031.436.109.644.234.211.125.386.297.524.516.138.216.207.482.207.797 0 .307-.079.582-.235.824-.156.242-.38.433-.672.574-.291.141-.64.211-1.047.211h-2.828Zm.875-.844h1.953c.318 0 .567-.075.747-.226.179-.151.269-.357.269-.618 0-.309-.09-.553-.269-.73-.18-.18-.429-.27-.747-.27h-1.953v1.844Zm0-2.64h1.578c.248 0 .46-.034.637-.102a.89.89 0 0 0 .406-.297.75.75 0 0 0 .145-.461.683.683 0 0 0-.316-.594c-.211-.145-.502-.218-.872-.218h-1.578v1.672Zm5.302 3.484v-6h.922v2.609h.609L216.06 111h1.187l-2.422 2.891 2.453 3.109h-1.187l-1.969-2.531h-.828V117h-.922Zm6.83-1.359 2.891-4.641h1.062v6h-.922v-4.641L219.358 117h-1.078v-6h.922v4.641Zm12.751-2.063v.859h-3.312v-.859h3.312ZM228.859 111v6h-.921v-6h.921Zm3.797 0v6h-.922v-6h.922Zm3.449 6.141c-.38 0-.725-.072-1.035-.215a1.778 1.778 0 0 1-.738-.629c-.182-.276-.273-.61-.273-1 0-.344.067-.623.203-.836.135-.216.316-.385.543-.508.226-.122.476-.213.75-.273.276-.063.553-.112.832-.149.364-.047.66-.082.886-.105.23-.026.396-.069.5-.129.107-.06.161-.164.161-.313v-.031c0-.385-.106-.685-.317-.898-.208-.214-.525-.321-.949-.321-.44 0-.785.097-1.035.289-.25.193-.426.399-.528.618l-.875-.313c.157-.364.365-.648.625-.851.263-.206.55-.349.86-.43.312-.083.62-.125.922-.125.192 0 .414.023.664.07.252.044.496.137.73.278.237.14.434.352.59.636.156.284.234.664.234 1.141V117h-.921v-.813h-.047c-.063.131-.167.27-.313.418-.146.149-.34.275-.582.379-.242.105-.538.157-.887.157Zm.141-.829c.365 0 .672-.071.922-.214.253-.144.443-.328.57-.555.13-.227.196-.465.196-.715v-.844c-.039.047-.125.09-.258.129-.13.037-.281.069-.453.098a22.642 22.642 0 0 1-.883.117c-.24.031-.464.082-.672.152a1.163 1.163 0 0 0-.5.309c-.125.135-.188.32-.188.555 0 .32.119.562.356.726.24.162.543.242.91.242Zm7.98 2.938a2.015 2.015 0 0 1-.672-.109l.234-.813c.224.057.422.078.594.063a.714.714 0 0 0 .457-.231c.135-.135.259-.355.371-.66l.172-.469-2.219-6.031h1l1.656 4.781h.063l1.656-4.781h1l-2.547 6.875c-.114.31-.256.566-.426.77a1.598 1.598 0 0 1-.589.457 1.822 1.822 0 0 1-.75.148Zm9.971-8.25v6h-.922v-6h.922Zm-.359 2.859v.86a8.688 8.688 0 0 1-.621.207 5.276 5.276 0 0 1-.649.136 5.354 5.354 0 0 1-.746.047c-.679 0-1.225-.183-1.636-.55-.409-.368-.614-.918-.614-1.653v-1.922h.922v1.922c0 .308.059.56.176.758.117.198.276.345.476.441.201.097.426.145.676.145.391 0 .744-.035 1.059-.105.318-.073.637-.168.957-.286Zm4.566 3.266c-.578 0-1.077-.128-1.496-.383a2.578 2.578 0 0 1-.965-1.078c-.224-.463-.336-1.003-.336-1.617 0-.615.112-1.156.336-1.625.227-.471.542-.839.946-1.102.406-.265.88-.398 1.422-.398.312 0 .621.052.925.156.305.104.582.274.832.508.25.232.45.539.598.922.148.383.223.854.223 1.414v.39h-4.625v-.796h3.687c0-.339-.068-.641-.203-.907a1.54 1.54 0 0 0-.57-.629 1.603 1.603 0 0 0-.867-.23 1.66 1.66 0 0 0-.954.273 1.8 1.8 0 0 0-.613.704 2.068 2.068 0 0 0-.215.929v.532c0 .453.078.837.235 1.152.159.312.379.551.66.715.281.161.608.242.98.242.242 0 .461-.034.657-.102.197-.07.368-.174.511-.312.143-.141.254-.315.332-.524l.891.25a1.97 1.97 0 0 1-.473.797 2.29 2.29 0 0 1-.82.531 3.022 3.022 0 0 1-1.098.188Zm3.328-5.266V111h4.875v.859h-1.968V117h-.922v-5.141h-1.985ZM56.447 105l-2.75-3.672h-.984V105h-.969v-8h.969v3.469h.422L56.338 97h1.156l-3.234 3.516L57.603 105h-1.156Zm4.28.125c-.541 0-1.016-.129-1.425-.387a2.626 2.626 0 0 1-.953-1.082c-.227-.463-.34-1.005-.34-1.625 0-.625.113-1.17.34-1.636a2.62 2.62 0 0 1 .953-1.086c.409-.258.884-.387 1.425-.387.542 0 1.016.129 1.422.387.41.257.727.62.953 1.086.23.466.344 1.011.344 1.636 0 .62-.114 1.162-.343 1.625a2.589 2.589 0 0 1-.954 1.082c-.406.258-.88.387-1.422.387Zm0-.828c.412 0 .75-.106 1.016-.317.266-.21.462-.488.59-.832.128-.343.191-.716.191-1.117a3.22 3.22 0 0 0-.191-1.121 1.895 1.895 0 0 0-.59-.84c-.266-.213-.604-.32-1.016-.32-.41 0-.75.107-1.015.32a1.895 1.895 0 0 0-.59.84 3.22 3.22 0 0 0-.191 1.121c0 .401.064.774.191 1.117.128.344.324.622.59.832.265.211.604.317 1.015.317Zm3.486 2.422v-2.578h.5c.122-.128.228-.266.316-.414.089-.149.166-.325.23-.528.069-.206.126-.456.173-.75.046-.297.088-.655.125-1.074L65.76 99h3.812v5.141h.922v2.578h-.922V105h-4.437v1.719h-.922Zm1.547-2.578h2.89v-4.282h-2.03l-.157 1.516a16.955 16.955 0 0 1-.242 1.645c-.097.468-.25.842-.461 1.121Zm13.067-2.563v.859h-3.312v-.859h3.312ZM75.733 99v6h-.922v-6h.922Zm3.797 0v6h-.922v-6h.922Zm3.45 6.141c-.38 0-.726-.072-1.036-.215a1.78 1.78 0 0 1-.738-.629c-.182-.276-.273-.61-.273-1 0-.344.067-.623.203-.836a1.44 1.44 0 0 1 .543-.508c.226-.122.476-.213.75-.273.276-.063.553-.112.832-.149.364-.047.66-.082.886-.105.23-.026.396-.069.5-.129.107-.06.16-.164.16-.313v-.031c0-.385-.105-.685-.316-.898-.208-.214-.525-.32-.949-.32-.44 0-.785.096-1.035.288-.25.193-.426.399-.528.618l-.874-.313c.156-.365.364-.648.624-.851a2.34 2.34 0 0 1 .86-.43c.312-.084.62-.125.922-.125.193 0 .414.023.664.07.252.044.496.137.73.277.237.141.434.353.59.637.156.284.234.664.234 1.141V105h-.921v-.813h-.047c-.063.131-.167.27-.313.418a1.79 1.79 0 0 1-.582.379c-.242.105-.537.157-.886.157Zm.14-.829c.365 0 .672-.071.922-.214a1.466 1.466 0 0 0 .766-1.27v-.844c-.04.047-.125.09-.258.129-.13.037-.281.069-.453.098a21.746 21.746 0 0 1-.883.117c-.24.031-.464.082-.672.152a1.162 1.162 0 0 0-.5.309c-.125.135-.188.32-.188.555 0 .32.119.562.356.726.24.162.543.242.91.242Zm3.76.688v-.859h.22c.18 0 .329-.036.449-.106.12-.073.216-.199.289-.379.075-.182.133-.435.172-.758.041-.325.071-.739.09-1.242L88.209 99h4v6h-.922v-5.14h-2.203L88.99 102a9.71 9.71 0 0 1-.133 1.301 3.117 3.117 0 0 1-.3.937 1.38 1.38 0 0 1-.532.571c-.221.127-.498.191-.832.191h-.312Zm9.458.125c-.542 0-1.017-.129-1.426-.387a2.626 2.626 0 0 1-.953-1.082c-.227-.463-.34-1.005-.34-1.625 0-.625.113-1.17.34-1.636.23-.467.547-.829.953-1.086.409-.258.884-.387 1.426-.387.542 0 1.016.129 1.422.387.409.257.726.62.953 1.086.23.466.344 1.011.344 1.636 0 .62-.115 1.162-.344 1.625a2.59 2.59 0 0 1-.953 1.082c-.407.258-.88.387-1.422.387Zm0-.828c.411 0 .75-.106 1.016-.317.265-.21.462-.488.59-.832.127-.343.19-.716.19-1.117a3.22 3.22 0 0 0-.19-1.121 1.895 1.895 0 0 0-.59-.84c-.266-.213-.605-.32-1.016-.32-.412 0-.75.107-1.016.32a1.894 1.894 0 0 0-.59.84 3.22 3.22 0 0 0-.191 1.121c0 .401.064.774.191 1.117.128.344.325.622.59.832.266.211.604.317 1.016.317ZM104.167 99v.86h-2.781V105h-.922v-6h3.703Zm3.472 6.125c-.542 0-1.017-.129-1.426-.387a2.626 2.626 0 0 1-.953-1.082c-.227-.463-.34-1.005-.34-1.625 0-.625.113-1.17.34-1.636a2.62 2.62 0 0 1 .953-1.086c.409-.258.884-.387 1.426-.387.541 0 1.015.129 1.422.387.408.257.726.62.953 1.086.229.466.343 1.011.343 1.636 0 .62-.114 1.162-.343 1.625a2.598 2.598 0 0 1-.953 1.082c-.407.258-.881.387-1.422.387Zm0-.828c.411 0 .75-.106 1.015-.317.266-.21.463-.488.59-.832.128-.343.192-.716.192-1.117s-.064-.774-.192-1.121a1.887 1.887 0 0 0-.59-.84c-.265-.213-.604-.32-1.015-.32-.412 0-.75.107-1.016.32a1.895 1.895 0 0 0-.59.84c-.127.347-.191.72-.191 1.121s.064.774.191 1.117c.128.344.324.622.59.832.266.211.604.317 1.016.317Zm4.126.703v-6h2.453c.646 0 1.159.146 1.539.438.38.291.57.677.57 1.156 0 .364-.108.647-.324.847a1.73 1.73 0 0 1-.832.403c.221.031.436.109.644.234.211.125.386.297.524.516.138.216.207.482.207.797 0 .307-.078.582-.234.824a1.618 1.618 0 0 1-.672.574c-.292.141-.641.211-1.047.211h-2.828Zm.875-.844h1.953c.317 0 .566-.075.746-.226.18-.151.269-.357.269-.618 0-.309-.089-.553-.269-.73-.18-.18-.429-.27-.746-.27h-1.953v1.844Zm0-2.64h1.578c.247 0 .459-.034.636-.102a.894.894 0 0 0 .407-.297.755.755 0 0 0 .144-.461.681.681 0 0 0-.316-.594c-.211-.145-.501-.218-.871-.218h-1.578v1.672Zm7.739 3.609c-.542 0-1.017-.129-1.426-.387a2.626 2.626 0 0 1-.953-1.082c-.227-.463-.34-1.005-.34-1.625 0-.625.113-1.17.34-1.636a2.62 2.62 0 0 1 .953-1.086c.409-.258.884-.387 1.426-.387.542 0 1.016.129 1.422.387.409.257.726.62.953 1.086.229.466.344 1.011.344 1.636 0 .62-.115 1.162-.344 1.625a2.591 2.591 0 0 1-.953 1.082c-.406.258-.88.387-1.422.387Zm0-.828c.411 0 .75-.106 1.016-.317.265-.21.462-.488.589-.832.128-.343.192-.716.192-1.117s-.064-.774-.192-1.121a1.893 1.893 0 0 0-.589-.84c-.266-.213-.605-.32-1.016-.32-.412 0-.75.107-1.016.32a1.903 1.903 0 0 0-.59.84c-.127.347-.191.72-.191 1.121s.064.774.191 1.117c.128.344.325.622.59.832.266.211.604.317 1.016.317Zm5.048-.656 2.89-4.641h1.063v6h-.922v-4.641L125.583 105h-1.078v-6h.922v4.641ZM127.708 97h.859c0 .422-.145.767-.437 1.035-.292.268-.688.403-1.188.403-.492 0-.884-.135-1.175-.403-.289-.268-.434-.613-.434-1.035h.859c0 .203.056.382.168.535.115.154.309.23.582.23.274 0 .469-.076.586-.23a.845.845 0 0 0 .18-.535Zm-64.409 18.641L66.19 111h1.063v6h-.921v-4.641L63.456 117h-1.079v-6h.922v4.641Zm9.658-2.063v.859h-3.313v-.859h3.313ZM69.863 111v6h-.922v-6h.922Zm3.797 0v6h-.922v-6h.922Zm4.12 6.125c-.562 0-1.046-.133-1.452-.398a2.601 2.601 0 0 1-.938-1.098c-.219-.466-.328-.999-.328-1.598 0-.609.112-1.147.336-1.613.227-.469.542-.835.945-1.098.406-.265.88-.398 1.422-.398.422 0 .802.078 1.14.234.34.156.617.375.833.656.216.282.35.61.402.985h-.922a1.429 1.429 0 0 0-.469-.727c-.24-.213-.562-.32-.968-.32-.36 0-.675.094-.946.281a1.836 1.836 0 0 0-.628.785c-.149.336-.223.731-.223 1.184 0 .464.073.867.219 1.211.148.344.356.611.625.801.27.19.588.285.953.285.24 0 .457-.042.652-.125a1.335 1.335 0 0 0 .785-.922h.922a2.136 2.136 0 0 1-1.195 1.629c-.333.164-.721.246-1.164.246Zm3.708-.125v-6h4.719v6h-.922v-5.141H82.41V117h-.922Zm8.918.125c-.578 0-1.077-.128-1.496-.383a2.57 2.57 0 0 1-.965-1.078c-.224-.463-.336-1.003-.336-1.617 0-.615.112-1.156.336-1.625.226-.471.542-.839.945-1.102.406-.265.88-.398 1.422-.398.313 0 .621.052.926.156.305.104.582.274.832.508.25.232.449.539.598.922.148.383.222.854.222 1.414v.39h-4.625v-.796h3.688a1.97 1.97 0 0 0-.204-.907 1.537 1.537 0 0 0-.57-.629 1.603 1.603 0 0 0-.867-.23c-.367 0-.685.091-.953.273-.266.18-.47.414-.613.704a2.065 2.065 0 0 0-.215.929v.532c0 .453.078.837.234 1.152.159.312.379.551.66.715.282.161.608.242.98.242.243 0 .462-.034.657-.102a1.4 1.4 0 0 0 .512-.312 1.42 1.42 0 0 0 .332-.524l.89.25a1.975 1.975 0 0 1-.472.797 2.29 2.29 0 0 1-.82.531 3.02 3.02 0 0 1-1.098.188Zm3.886-.125v-6h.922v2.609h.61L97.98 111h1.188l-2.422 2.891L99.199 117H98.01l-1.968-2.531h-.829V117h-.921Zm10.627-6v5.141h.844v2.797h-.922V117h-4.64v-6h.922v5.141h2.875V111h.921Zm3.186 4.641 2.891-4.641h1.062v6h-.922v-4.641L108.261 117h-1.078v-6h.922v4.641Zm6.563 0 2.891-4.641h1.063v6h-.922v-4.641L114.825 117h-1.078v-6h.921v4.641ZM112.23 10l-2.75-3.672h-.984V10h-.969V2h.969v3.469h.421L112.121 2h1.156l-3.235 3.516L113.386 10h-1.156Zm4.28.125c-.541 0-1.017-.129-1.426-.387a2.635 2.635 0 0 1-.953-1.082c-.226-.463-.339-1.005-.339-1.625 0-.625.113-1.17.339-1.636a2.63 2.63 0 0 1 .953-1.086c.409-.258.885-.387 1.426-.387.542 0 1.016.129 1.422.387.409.257.727.62.953 1.086.229.466.344 1.011.344 1.636 0 .62-.115 1.162-.344 1.625a2.586 2.586 0 0 1-.953 1.082c-.406.258-.88.387-1.422.387Zm0-.828c.412 0 .75-.106 1.016-.317.266-.21.462-.488.59-.832a3.2 3.2 0 0 0 .191-1.117c0-.4-.064-.774-.191-1.12a1.89 1.89 0 0 0-.59-.84c-.266-.214-.604-.321-1.016-.321-.411 0-.75.107-1.015.32a1.882 1.882 0 0 0-.59.84c-.128.347-.192.72-.192 1.121s.064.774.192 1.117c.127.344.324.622.59.832.265.211.604.317 1.015.317Zm3.486 2.422V9.14h.5c.122-.128.227-.266.316-.414.089-.149.165-.325.23-.528.068-.206.125-.456.172-.75.047-.297.089-.655.125-1.074L121.542 4h3.813v5.14h.922v2.579h-.922V10h-4.438v1.719h-.921Zm1.546-2.578h2.891V4.859h-2.031l-.156 1.516a16.717 16.717 0 0 1-.243 1.645c-.096.468-.25.842-.461 1.12Zm11.49.984c-.542 0-1.017-.129-1.426-.387a2.628 2.628 0 0 1-.953-1.082c-.227-.463-.34-1.005-.34-1.625 0-.625.113-1.17.34-1.636.229-.467.547-.829.953-1.086.409-.258.884-.387 1.426-.387.541 0 1.015.129 1.422.387.408.257.726.62.953 1.086.229.466.343 1.011.343 1.636 0 .62-.114 1.162-.343 1.625a2.6 2.6 0 0 1-.953 1.082c-.407.258-.881.387-1.422.387Zm0-.828c.411 0 .75-.106 1.015-.317.266-.21.463-.488.59-.832.128-.343.192-.716.192-1.117 0-.4-.064-.774-.192-1.12a1.882 1.882 0 0 0-.59-.84c-.265-.214-.604-.321-1.015-.321-.412 0-.75.107-1.016.32a1.89 1.89 0 0 0-.59.84c-.127.347-.191.72-.191 1.121s.064.774.191 1.117c.128.344.324.622.59.832.266.211.604.317 1.016.317Zm6.563.828c-.562 0-1.047-.133-1.453-.398a2.592 2.592 0 0 1-.937-1.098c-.219-.466-.329-.999-.329-1.598 0-.61.112-1.147.336-1.613.227-.469.542-.835.946-1.098.406-.265.88-.398 1.422-.398.421 0 .802.078 1.14.234.339.157.616.375.832.657.216.28.351.609.403.984h-.922a1.436 1.436 0 0 0-.469-.727c-.24-.213-.563-.32-.969-.32a1.62 1.62 0 0 0-.945.281 1.834 1.834 0 0 0-.629.785c-.148.336-.223.73-.223 1.184 0 .464.073.867.219 1.21.149.345.357.612.625.802.271.19.589.285.953.285.24 0 .457-.042.653-.125.195-.083.36-.203.496-.36.135-.156.231-.343.289-.562h.922a2.132 2.132 0 0 1-1.196 1.629c-.333.164-.721.246-1.164.246Zm7.723-3.547v.86h-3.313v-.86h3.313ZM144.224 4v6h-.922V4h.922Zm3.797 0v6h-.922V4h.922Zm4.121 6.125c-.542 0-1.017-.129-1.426-.387a2.628 2.628 0 0 1-.953-1.082c-.226-.463-.34-1.005-.34-1.625 0-.625.114-1.17.34-1.636.229-.467.547-.829.953-1.086.409-.258.884-.387 1.426-.387.542 0 1.016.129 1.422.387.409.257.727.62.953 1.086.229.466.344 1.011.344 1.636 0 .62-.115 1.162-.344 1.625a2.586 2.586 0 0 1-.953 1.082c-.406.258-.88.387-1.422.387Zm0-.828c.412 0 .75-.106 1.016-.317.265-.21.462-.488.59-.832a3.2 3.2 0 0 0 .191-1.117c0-.4-.064-.774-.191-1.12a1.898 1.898 0 0 0-.59-.84c-.266-.214-.604-.321-1.016-.321-.411 0-.75.107-1.016.32a1.888 1.888 0 0 0-.589.84c-.128.347-.192.72-.192 1.121s.064.774.192 1.117c.127.344.324.622.589.832.266.211.605.317 1.016.317Zm4.126.703V4h2.453c.646 0 1.159.146 1.539.438.38.291.571.677.571 1.156 0 .364-.109.647-.325.847a1.719 1.719 0 0 1-.832.403c.222.031.437.11.645.234.211.125.385.297.523.516.138.216.207.482.207.797 0 .307-.078.582-.234.824-.156.242-.38.433-.672.574-.292.14-.641.211-1.047.211h-2.828Zm.875-.844h1.953c.318 0 .567-.075.746-.226.18-.151.27-.357.27-.617 0-.31-.09-.554-.27-.731-.179-.18-.428-.27-.746-.27h-1.953v1.844Zm0-2.64h1.578c.248 0 .46-.034.637-.102a.901.901 0 0 0 .406-.297.75.75 0 0 0 .145-.46.68.68 0 0 0-.317-.595c-.211-.145-.501-.218-.871-.218h-1.578v1.672Zm7.067 3.625c-.38 0-.725-.072-1.035-.215a1.773 1.773 0 0 1-.738-.63c-.182-.275-.273-.608-.273-1 0-.343.067-.622.203-.835.135-.216.316-.385.543-.508.226-.122.476-.213.75-.273.276-.063.553-.112.832-.149.364-.047.66-.082.886-.105.23-.026.396-.07.5-.13.107-.059.161-.163.161-.312v-.03c0-.386-.106-.686-.317-.9-.208-.213-.525-.32-.949-.32-.44 0-.785.097-1.035.29-.25.192-.426.398-.528.617l-.875-.313c.157-.364.365-.648.625-.851.263-.206.55-.35.86-.43.312-.083.62-.125.922-.125.192 0 .414.023.664.07.252.044.496.137.73.278.237.14.434.352.59.636.156.284.234.664.234 1.14V10h-.921v-.813h-.047c-.063.13-.167.27-.313.418-.146.149-.34.275-.582.38-.242.104-.538.156-.887.156Zm.141-.829c.365 0 .672-.071.922-.214.253-.144.443-.328.57-.555.13-.227.196-.465.196-.715v-.844c-.039.047-.125.09-.258.13-.13.036-.281.068-.453.097a21.472 21.472 0 0 1-.883.117 3.51 3.51 0 0 0-.672.152c-.206.068-.372.171-.5.31-.125.134-.188.32-.188.554 0 .32.119.562.356.726.24.162.543.242.91.242Zm8.308-2.734v.86h-3.313v-.86h3.313ZM169.565 4v6h-.922V4h.922Zm3.797 0v6h-.922V4h.922Zm2.605 4.64L178.858 4h1.062v6h-.921V5.36L176.124 10h-1.079V4h.922v4.64Zm9.251 1.36V4.844h-1.593c-.36 0-.642.083-.848.25-.206.166-.309.396-.309.687 0 .287.093.512.278.676.187.164.444.246.769.246h1.938v.86h-1.938c-.406 0-.756-.072-1.051-.215a1.573 1.573 0 0 1-.679-.614 1.835 1.835 0 0 1-.239-.953c0-.37.084-.687.25-.953.167-.266.405-.47.715-.613.313-.143.684-.215 1.114-.215h2.468v6h-.875Zm-4 0 1.703-2.984h1L182.218 10h-1ZM94.86 22v-6h4.72v6h-.923v-5.14h-2.875V22h-.922Zm8.84.125c-.541 0-1.017-.129-1.426-.387a2.627 2.627 0 0 1-.953-1.082c-.226-.463-.34-1.005-.34-1.625 0-.625.114-1.17.34-1.636.229-.467.547-.829.953-1.086.409-.258.885-.387 1.426-.387.542 0 1.016.129 1.422.387.409.257.727.62.953 1.085.229.467.344 1.012.344 1.637 0 .62-.115 1.162-.344 1.625a2.586 2.586 0 0 1-.953 1.082c-.406.258-.88.387-1.422.387Zm0-.828c.412 0 .75-.106 1.016-.317.265-.21.462-.488.59-.832.127-.343.191-.716.191-1.117 0-.4-.064-.774-.191-1.12a1.898 1.898 0 0 0-.59-.84c-.266-.214-.604-.321-1.016-.321-.411 0-.75.107-1.015.32a1.882 1.882 0 0 0-.59.84c-.128.346-.192.72-.192 1.121s.064.774.192 1.117c.127.344.324.622.59.832.265.211.604.317 1.015.317Zm6.564.828c-.563 0-1.047-.133-1.453-.398a2.594 2.594 0 0 1-.938-1.098c-.219-.466-.328-.999-.328-1.598 0-.61.112-1.147.336-1.613.226-.469.542-.835.945-1.098.406-.265.88-.398 1.422-.398.422 0 .802.078 1.141.234.338.157.616.375.832.657.216.28.35.609.402.984h-.922a1.422 1.422 0 0 0-.469-.727c-.239-.213-.562-.32-.968-.32-.36 0-.675.094-.946.281a1.834 1.834 0 0 0-.629.785c-.148.336-.222.73-.222 1.184 0 .463.073.867.219 1.21.148.345.356.612.625.802.27.19.588.285.953.285.239 0 .457-.042.652-.125a1.345 1.345 0 0 0 .785-.922h.922a2.131 2.131 0 0 1-1.195 1.629c-.334.164-.722.246-1.164.246Zm3.234-5.266V16h4.875v.86h-1.969V22h-.922v-5.14h-1.984Zm7.674 5.282c-.38 0-.725-.072-1.035-.215a1.783 1.783 0 0 1-.739-.63c-.182-.275-.273-.608-.273-1 0-.343.068-.622.203-.835.136-.216.317-.385.543-.508.227-.122.477-.213.75-.273.276-.063.553-.112.832-.149.365-.047.66-.082.887-.105.229-.026.396-.07.5-.13.107-.059.16-.163.16-.312v-.03c0-.386-.105-.686-.316-.9-.209-.213-.525-.32-.95-.32-.44 0-.785.097-1.035.29-.25.192-.426.398-.527.617l-.875-.313c.156-.364.364-.648.625-.851.263-.206.549-.35.859-.43a3.57 3.57 0 0 1 .922-.125c.193 0 .414.023.664.07.253.044.496.137.731.277.237.141.433.353.59.637.156.284.234.664.234 1.14V22H123v-.813h-.047c-.062.13-.167.27-.312.418-.146.149-.34.275-.582.38-.243.104-.538.156-.887.156Zm.14-.828c.365 0 .672-.072.922-.215a1.466 1.466 0 0 0 .766-1.27v-.844c-.039.047-.125.09-.258.13-.13.036-.281.068-.453.097a20.277 20.277 0 0 1-.883.117 3.55 3.55 0 0 0-.672.152c-.205.068-.372.171-.5.31-.125.134-.187.32-.187.554 0 .32.118.562.355.726.24.162.543.242.91.242Zm8.308-2.735v.86h-3.312v-.86h3.312ZM126.526 16v6h-.922v-6h.922Zm3.797 0v6h-.922v-6h.922Zm4.121 6.125c-.541 0-1.017-.129-1.425-.387a2.63 2.63 0 0 1-.954-1.082c-.226-.463-.339-1.005-.339-1.625 0-.625.113-1.17.339-1.636.23-.467.547-.829.954-1.086.408-.258.884-.387 1.425-.387.542 0 1.016.129 1.422.387.409.257.727.62.953 1.085.23.467.344 1.012.344 1.637 0 .62-.114 1.162-.344 1.625a2.586 2.586 0 0 1-.953 1.082c-.406.258-.88.387-1.422.387Zm0-.828c.412 0 .75-.106 1.016-.317.266-.21.462-.488.59-.832.127-.343.191-.716.191-1.117 0-.4-.064-.774-.191-1.12a1.89 1.89 0 0 0-.59-.84c-.266-.214-.604-.321-1.016-.321-.411 0-.75.107-1.015.32a1.882 1.882 0 0 0-.59.84c-.128.346-.192.72-.192 1.121s.064.774.192 1.117c.127.344.324.622.59.832.265.211.604.317 1.015.317Zm4.126.703v-6h2.453c.646 0 1.159.146 1.54.438.38.291.57.677.57 1.156 0 .364-.108.647-.324.847a1.728 1.728 0 0 1-.832.403c.221.031.436.11.644.234.211.125.386.297.524.516.138.216.207.482.207.797 0 .307-.079.582-.235.824-.156.242-.38.433-.672.574-.291.14-.64.211-1.047.211h-2.828Zm.875-.844h1.953c.318 0 .567-.075.747-.226a.766.766 0 0 0 .269-.617c0-.31-.09-.554-.269-.731-.18-.18-.429-.27-.747-.27h-1.953v1.844Zm0-2.64h1.578c.248 0 .46-.034.637-.102a.896.896 0 0 0 .406-.297.75.75 0 0 0 .145-.46.681.681 0 0 0-.316-.595c-.211-.145-.502-.218-.872-.218h-1.578v1.672ZM144.747 22v-6h.922v2.61h.609l2.157-2.61h1.187l-2.422 2.89 2.453 3.11h-1.187l-1.969-2.531h-.828V22h-.922Zm6.83-1.36 2.891-4.64h1.062v6h-.922v-4.64L151.733 22h-1.078v-6h.922v4.64Zm12.751-2.062v.86h-3.312v-.86h3.312ZM161.234 16v6h-.921v-6h.921Zm3.797 0v6h-.922v-6h.922Zm3.449 6.14c-.38 0-.725-.071-1.035-.214a1.774 1.774 0 0 1-.738-.63c-.182-.275-.273-.608-.273-1 0-.343.067-.622.203-.835.135-.216.316-.385.543-.508.226-.122.476-.213.75-.273.276-.063.553-.112.832-.149.364-.047.66-.082.886-.105.23-.026.396-.07.5-.13.107-.059.161-.163.161-.312v-.03c0-.386-.106-.686-.317-.9-.208-.213-.525-.32-.949-.32-.44 0-.785.097-1.035.29-.25.192-.426.398-.528.617l-.875-.313c.157-.364.365-.648.625-.851.263-.206.55-.35.86-.43.312-.084.62-.125.922-.125.192 0 .414.023.664.07.252.044.496.137.73.277.237.141.434.353.59.637.156.284.234.664.234 1.14V22h-.921v-.813h-.047c-.063.13-.167.27-.313.418-.146.149-.34.275-.582.38-.242.104-.538.156-.887.156Zm.141-.828c.365 0 .672-.071.922-.214.253-.144.443-.328.57-.555.13-.227.196-.465.196-.715v-.844c-.039.047-.125.09-.258.13-.13.036-.281.068-.453.097a20.99 20.99 0 0 1-.883.117c-.24.031-.464.082-.672.152-.206.068-.372.171-.5.31-.125.134-.188.32-.188.554 0 .32.119.562.356.726.24.162.543.242.91.242Zm7.98 2.938a2.008 2.008 0 0 1-.672-.11l.234-.812c.224.057.422.078.594.063a.712.712 0 0 0 .457-.23c.135-.136.259-.356.371-.661l.172-.469L175.538 16h1l1.656 4.781h.063L179.913 16h1l-2.547 6.875c-.114.31-.256.566-.426.77a1.59 1.59 0 0 1-.589.457 1.824 1.824 0 0 1-.75.148Zm9.971-8.25v6h-.922v-6h.922Zm-.359 2.86v.859a8.542 8.542 0 0 1-.621.207 5.39 5.39 0 0 1-.649.137 5.48 5.48 0 0 1-.746.046c-.679 0-1.225-.183-1.636-.55-.409-.368-.614-.918-.614-1.653v-1.922h.922v1.922c0 .308.059.56.176.758.117.198.276.345.476.441.201.097.426.145.676.145.391 0 .744-.035 1.059-.105.318-.073.637-.168.957-.286Zm4.566 3.265c-.578 0-1.077-.128-1.496-.383a2.577 2.577 0 0 1-.965-1.078c-.224-.463-.336-1.003-.336-1.617 0-.615.112-1.156.336-1.625.227-.471.542-.839.946-1.102.406-.265.88-.398 1.422-.398.312 0 .621.052.925.156.305.104.582.274.832.508.25.232.45.539.598.922.148.383.223.854.223 1.414v.39h-4.625v-.796h3.687c0-.339-.068-.641-.203-.907a1.533 1.533 0 0 0-1.437-.859c-.368 0-.685.091-.954.273-.265.18-.47.415-.613.704a2.068 2.068 0 0 0-.215.93v.53c0 .454.078.838.235 1.153.159.312.379.55.66.715.281.161.608.242.98.242.242 0 .461-.034.657-.102.197-.07.368-.174.511-.312.143-.14.254-.315.332-.524l.891.25a1.97 1.97 0 0 1-.473.797 2.304 2.304 0 0 1-.82.532 3.043 3.043 0 0 1-1.098.187ZM189.514 15a.61.61 0 0 1-.438-.188.608.608 0 0 1-.187-.437c0-.18.062-.328.187-.445a.623.623 0 0 1 .438-.18c.179 0 .328.06.445.18.12.117.18.265.18.445a.62.62 0 0 1-.18.438.584.584 0 0 1-.445.187Zm2.25 0a.61.61 0 0 1-.438-.188.608.608 0 0 1-.187-.437c0-.18.062-.328.187-.445a.623.623 0 0 1 .438-.18c.179 0 .328.06.445.18.12.117.18.265.18.445a.62.62 0 0 1-.18.438.584.584 0 0 1-.445.187Zm2.343 1.86V16h4.875v.86h-1.968V22h-.922v-5.14h-1.985ZM6.135 22l-2.75-3.672H2.4V22h-.968v-8H2.4v3.469h.422L6.025 14h1.157l-3.235 3.516L7.291 22H6.135Zm4.28.125c-.542 0-1.017-.129-1.426-.387a2.627 2.627 0 0 1-.953-1.082c-.226-.463-.34-1.005-.34-1.625 0-.625.114-1.17.34-1.636.23-.467.547-.829.953-1.086.41-.258.884-.387 1.426-.387.542 0 1.016.129 1.422.387.409.257.726.62.953 1.085.23.467.344 1.012.344 1.637 0 .62-.115 1.162-.344 1.625a2.59 2.59 0 0 1-.953 1.082c-.406.258-.88.387-1.422.387Zm0-.828c.412 0 .75-.106 1.016-.317.265-.21.462-.488.59-.832.127-.343.19-.716.19-1.117 0-.4-.063-.774-.19-1.12a1.89 1.89 0 0 0-.59-.84c-.266-.214-.604-.321-1.016-.321-.411 0-.75.107-1.016.32a1.89 1.89 0 0 0-.59.84c-.127.346-.19.72-.19 1.121s.063.774.19 1.117c.128.344.325.622.59.832.266.211.605.317 1.016.317Zm3.485 2.422V21.14h.5c.123-.128.228-.266.317-.414a2.55 2.55 0 0 0 .23-.528 4.89 4.89 0 0 0 .172-.75c.047-.297.089-.655.125-1.074L15.447 16h3.813v5.14h.922v2.579h-.922V22h-4.438v1.719H13.9Zm1.547-2.578h2.89v-4.282h-2.03l-.157 1.516a16.948 16.948 0 0 1-.242 1.645c-.096.468-.25.842-.46 1.12ZM24.5 24.25V16h.89v.953h.11c.068-.104.162-.237.281-.398.123-.164.297-.31.524-.438.229-.13.539-.195.93-.195.505 0 .95.126 1.335.379.386.252.687.61.903 1.074.216.463.324 1.01.324 1.64 0 .636-.108 1.187-.324 1.653a2.559 2.559 0 0 1-.899 1.078 2.349 2.349 0 0 1-1.324.379c-.385 0-.694-.064-.926-.191a1.717 1.717 0 0 1-.535-.442 5.913 5.913 0 0 1-.289-.414h-.078v3.172h-.922Zm.906-5.25c0 .453.067.853.2 1.2.132.343.326.613.581.808.256.193.568.289.938.289.385 0 .707-.102.965-.305.26-.206.456-.482.586-.828.133-.349.199-.737.199-1.164 0-.422-.065-.802-.195-1.14a1.762 1.762 0 0 0-.582-.81c-.258-.2-.582-.3-.973-.3-.375 0-.69.095-.945.285-.255.188-.448.45-.578.79-.13.335-.196.727-.196 1.175Zm8.313 3.125c-.578 0-1.077-.128-1.496-.383a2.57 2.57 0 0 1-.965-1.078c-.224-.463-.336-1.003-.336-1.617 0-.615.112-1.156.336-1.625a2.65 2.65 0 0 1 .945-1.102c.406-.265.88-.398 1.422-.398.313 0 .621.052.926.156.305.104.582.274.832.508.25.232.45.539.598.922.148.383.222.854.222 1.414v.39h-4.625v-.796h3.688c0-.339-.068-.641-.203-.907a1.53 1.53 0 0 0-.57-.629 1.597 1.597 0 0 0-.868-.23c-.367 0-.685.091-.953.273-.266.18-.47.415-.613.704a2.065 2.065 0 0 0-.215.93v.53c0 .454.078.838.234 1.153.159.312.38.55.66.715.282.161.608.242.98.242.243 0 .462-.034.657-.102.198-.07.368-.174.512-.312a1.42 1.42 0 0 0 .332-.524l.89.25a1.974 1.974 0 0 1-.472.797 2.302 2.302 0 0 1-.82.532 3.042 3.042 0 0 1-1.098.187ZM41.308 16v.86h-2.782V22h-.922v-6h3.704Zm2.267 4.64 2.89-4.64h1.063v6h-.922v-4.64L43.731 22h-1.078v-6h.922v4.64Zm8.08 1.485c-.542 0-1.018-.129-1.427-.387a2.628 2.628 0 0 1-.953-1.082c-.226-.463-.34-1.005-.34-1.625 0-.625.114-1.17.34-1.636.23-.467.547-.829.953-1.086.41-.258.885-.387 1.426-.387.542 0 1.016.129 1.422.387.409.257.727.62.953 1.085.23.467.344 1.012.344 1.637 0 .62-.114 1.162-.344 1.625a2.592 2.592 0 0 1-.953 1.082c-.406.258-.88.387-1.422.387Zm0-.828c.41 0 .75-.106 1.015-.317.265-.21.462-.488.59-.832.127-.343.191-.716.191-1.117 0-.4-.064-.774-.191-1.12a1.89 1.89 0 0 0-.59-.84c-.266-.214-.604-.321-1.016-.321-.411 0-.75.107-1.015.32a1.89 1.89 0 0 0-.59.84c-.128.346-.192.72-.192 1.121s.064.774.192 1.117c.127.344.324.622.59.832.265.211.604.317 1.015.317Zm8.14-2.719v.86h-3.312v-.86h3.313ZM56.703 16v6h-.922v-6h.922Zm3.797 0v6h-.922v-6h.922Zm3.45 6.14c-.381 0-.726-.071-1.036-.214a1.777 1.777 0 0 1-.738-.63c-.182-.275-.274-.608-.274-1 0-.343.068-.622.203-.835.136-.216.317-.385.544-.508.226-.122.476-.213.75-.273.275-.063.553-.112.831-.149.365-.047.66-.082.887-.105.23-.026.396-.07.5-.13.107-.059.16-.163.16-.312v-.03c0-.386-.105-.686-.316-.9-.208-.213-.525-.32-.95-.32-.44 0-.784.097-1.034.29-.25.192-.426.398-.528.617l-.875-.313c.157-.364.365-.648.625-.851.263-.206.55-.35.86-.43.312-.084.62-.125.922-.125.192 0 .414.023.664.07.252.044.496.137.73.277.237.141.434.353.59.637.156.284.234.664.234 1.14V22h-.922v-.813h-.046c-.063.13-.167.27-.313.418-.146.149-.34.275-.582.38-.242.104-.538.156-.887.156Zm.14-.828c.365 0 .672-.071.922-.214a1.464 1.464 0 0 0 .765-1.27v-.844c-.039.047-.125.09-.257.13-.13.036-.282.068-.454.097a20.08 20.08 0 0 1-.882.117c-.24.031-.464.082-.672.152-.206.068-.373.171-.5.31-.125.134-.188.32-.188.554 0 .32.119.562.356.726.24.162.543.242.91.242Z"/></svg>